<?xml version="1.0" encoding="utf-8"?>
<!-- Generator: Adobe Illustrator 19.2.1, SVG Export Plug-In . SVG Version: 6.00 Build 0)  -->
<svg version="1.1" id="Layer_1" xmlns="http://www.w3.org/2000/svg" xmlns:xlink="http://www.w3.org/1999/xlink" x="0px" y="0px"
	 viewBox="0 0 498.5 170.2" style="enable-background:new 0 0 498.5 170.2;" xml:space="preserve">
<style type="text/css">
	.st0{fill:#FFFFFF;}
	.st1{font-family:'BebasNeueBold';}
	.st2{font-size:101.2796px;}
	.st3{fill-rule:evenodd;clip-rule:evenodd;fill:#5DC7D0;}
	.st4{fill-rule:evenodd;clip-rule:evenodd;fill:#FFFFFF;}
</style>
<text transform="matrix(1 0 0 1 171.7046 99.91)" class="st0 st1 st2">Lifestyle</text>
<g>
	<path class="st0" d="M199.9,143.3c0,0.4-0.1,0.7-0.2,1c-0.1,0.3-0.3,0.5-0.5,0.7c-0.2,0.2-0.5,0.3-0.8,0.4
		c-0.3,0.1-0.6,0.1-0.9,0.1h-2.7c-0.6,0-1-0.1-1.4-0.2c-0.4-0.1-0.8-0.3-1.1-0.6c-0.3-0.3-0.7-0.7-1-1.2c-0.3-0.5-0.7-1.1-1.1-1.9
		l-7.6-14.3c-0.4-0.9-0.9-1.8-1.4-2.8c-0.5-1-0.9-1.9-1.2-2.9h0c0.1,1.1,0.1,2.3,0.1,3.4c0,1.1,0,2.3,0,3.5v16c0,0.2,0,0.3-0.1,0.4
		c-0.1,0.1-0.2,0.2-0.5,0.3c-0.2,0.1-0.5,0.2-0.9,0.2c-0.4,0-0.8,0.1-1.4,0.1c-0.6,0-1,0-1.4-0.1c-0.4,0-0.6-0.1-0.9-0.2
		c-0.2-0.1-0.3-0.2-0.4-0.3c-0.1-0.1-0.1-0.3-0.1-0.4v-27.6c0-0.7,0.2-1.3,0.7-1.7c0.4-0.4,1-0.6,1.6-0.6h3.3c0.6,0,1.1,0.1,1.5,0.2
		c0.4,0.1,0.8,0.3,1.1,0.5c0.3,0.2,0.6,0.6,0.9,1c0.3,0.4,0.6,0.9,0.9,1.6l6,11.2c0.3,0.7,0.7,1.3,1,2c0.3,0.7,0.7,1.3,1,2
		c0.3,0.7,0.6,1.3,0.9,1.9c0.3,0.6,0.6,1.3,0.9,1.9h0c0-1.1-0.1-2.3-0.1-3.5c0-1.2,0-2.3,0-3.4v-14.4c0-0.2,0-0.3,0.1-0.4
		c0.1-0.1,0.3-0.2,0.5-0.3c0.2-0.1,0.5-0.2,0.9-0.2c0.4,0,0.8-0.1,1.4-0.1c0.5,0,1,0,1.4,0.1c0.4,0,0.6,0.1,0.8,0.2
		c0.2,0.1,0.3,0.2,0.4,0.3c0.1,0.1,0.1,0.3,0.1,0.4V143.3z"/>
	<path class="st0" d="M225.8,133.5c0,0.7-0.2,1.3-0.5,1.6c-0.3,0.3-0.8,0.5-1.3,0.5h-12.9c0,0.9,0.1,1.7,0.3,2.5
		c0.2,0.7,0.6,1.4,1,1.9c0.5,0.5,1.1,0.9,1.8,1.2c0.7,0.3,1.6,0.4,2.6,0.4c1,0,2-0.1,2.7-0.2c0.8-0.2,1.5-0.3,2.1-0.5
		c0.6-0.2,1.1-0.3,1.4-0.5c0.4-0.1,0.7-0.2,0.9-0.2c0.1,0,0.3,0,0.4,0.1c0.1,0.1,0.2,0.2,0.2,0.3c0.1,0.1,0.1,0.3,0.1,0.6
		c0,0.3,0,0.6,0,1c0,0.3,0,0.6,0,0.9c0,0.2,0,0.5-0.1,0.6c0,0.2-0.1,0.3-0.1,0.4c-0.1,0.1-0.1,0.2-0.2,0.3c-0.1,0.1-0.4,0.3-0.8,0.5
		c-0.5,0.2-1,0.4-1.8,0.6c-0.7,0.2-1.5,0.3-2.4,0.5c-0.9,0.1-1.9,0.2-2.9,0.2c-1.9,0-3.5-0.2-4.9-0.7c-1.4-0.5-2.6-1.2-3.5-2.2
		c-0.9-1-1.7-2.2-2.1-3.7c-0.5-1.5-0.7-3.2-0.7-5.2c0-1.9,0.2-3.6,0.7-5.1c0.5-1.5,1.2-2.8,2.1-3.8c0.9-1.1,2.1-1.9,3.4-2.4
		c1.3-0.6,2.8-0.8,4.5-0.8c1.8,0,3.3,0.3,4.5,0.8c1.3,0.5,2.3,1.2,3.1,2.2c0.8,0.9,1.4,2,1.8,3.3c0.4,1.3,0.6,2.6,0.6,4.1V133.5z
		 M220,131.8c0-1.7-0.3-3-1-3.9c-0.7-1-1.8-1.4-3.3-1.4c-0.8,0-1.4,0.1-2,0.4c-0.6,0.3-1,0.7-1.4,1.1c-0.4,0.5-0.7,1.1-0.9,1.7
		c-0.2,0.7-0.3,1.4-0.3,2.1H220z"/>
	<path class="st0" d="M242.9,142.6c0,0.7,0,1.2-0.1,1.6c-0.1,0.4-0.2,0.6-0.3,0.8c-0.1,0.2-0.4,0.3-0.6,0.4c-0.3,0.1-0.6,0.2-1,0.3
		c-0.4,0.1-0.8,0.2-1.2,0.2s-0.9,0.1-1.3,0.1c-1.2,0-2.2-0.1-3.1-0.4c-0.9-0.3-1.6-0.8-2.2-1.4c-0.6-0.6-1-1.4-1.3-2.4
		c-0.3-0.9-0.4-2.1-0.4-3.4v-10.8h-2.5c-0.3,0-0.5-0.2-0.7-0.6c-0.2-0.4-0.2-1-0.2-1.9c0-0.5,0-0.8,0.1-1.2c0-0.3,0.1-0.6,0.2-0.7
		c0.1-0.2,0.2-0.3,0.3-0.4c0.1-0.1,0.3-0.1,0.4-0.1h2.5V118c0-0.2,0-0.3,0.1-0.4c0.1-0.1,0.2-0.2,0.5-0.3c0.2-0.1,0.5-0.1,0.9-0.2
		c0.4,0,0.9-0.1,1.4-0.1c0.6,0,1.1,0,1.5,0.1c0.4,0,0.7,0.1,0.9,0.2c0.2,0.1,0.4,0.2,0.5,0.3c0.1,0.1,0.1,0.3,0.1,0.4v4.7h4.6
		c0.2,0,0.3,0,0.4,0.1c0.1,0.1,0.2,0.2,0.3,0.4c0.1,0.2,0.1,0.4,0.2,0.7c0,0.3,0.1,0.7,0.1,1.2c0,0.9-0.1,1.5-0.2,1.9
		c-0.2,0.4-0.4,0.6-0.7,0.6h-4.6v9.9c0,1.2,0.2,2,0.5,2.6c0.4,0.6,1,0.9,1.9,0.9c0.3,0,0.6,0,0.9-0.1c0.3-0.1,0.5-0.1,0.7-0.2
		c0.2-0.1,0.4-0.1,0.5-0.2c0.1-0.1,0.3-0.1,0.4-0.1c0.1,0,0.2,0,0.3,0.1c0.1,0.1,0.2,0.2,0.2,0.3c0,0.2,0.1,0.4,0.1,0.7
		C242.9,141.8,242.9,142.2,242.9,142.6z"/>
	<path class="st0" d="M266.8,144.7c0,0.2,0,0.3-0.1,0.4c-0.1,0.1-0.2,0.2-0.5,0.3c-0.2,0.1-0.5,0.1-0.9,0.2c-0.4,0-0.9,0.1-1.5,0.1
		c-0.6,0-1.2,0-1.6,0c-0.4,0-0.7-0.1-1-0.2c-0.3-0.1-0.5-0.2-0.6-0.3c-0.1-0.1-0.3-0.3-0.4-0.5l-7-11.1v11.2c0,0.2,0,0.3-0.1,0.4
		c-0.1,0.1-0.3,0.2-0.5,0.3c-0.2,0.1-0.5,0.1-0.9,0.2c-0.4,0-0.9,0.1-1.4,0.1c-0.6,0-1.1,0-1.4-0.1c-0.4,0-0.7-0.1-0.9-0.2
		c-0.2-0.1-0.4-0.2-0.5-0.3c-0.1-0.1-0.1-0.3-0.1-0.4v-31.2c0-0.2,0-0.3,0.1-0.4c0.1-0.1,0.3-0.2,0.5-0.3c0.2-0.1,0.5-0.2,0.9-0.2
		c0.4,0,0.9-0.1,1.4-0.1c0.6,0,1.1,0,1.4,0.1c0.4,0,0.7,0.1,0.9,0.2c0.2,0.1,0.4,0.2,0.5,0.3c0.1,0.1,0.1,0.3,0.1,0.4v18.6l6.3-8.4
		c0.1-0.2,0.3-0.4,0.4-0.5c0.2-0.1,0.4-0.3,0.6-0.3c0.3-0.1,0.6-0.1,1-0.2c0.4,0,0.9-0.1,1.5-0.1c0.6,0,1.1,0,1.5,0.1
		c0.4,0,0.7,0.1,1,0.2c0.2,0.1,0.4,0.2,0.5,0.3c0.1,0.1,0.1,0.3,0.1,0.4c0,0.2-0.1,0.5-0.2,0.8c-0.1,0.3-0.3,0.6-0.5,0.9l-6.2,7
		l7.2,11.1c0.2,0.3,0.3,0.6,0.4,0.8C266.8,144.3,266.8,144.5,266.8,144.7z"/>
	<path class="st0" d="M282.7,145.5l-2.6,7.5c-0.1,0.4-0.5,0.7-1.2,0.9c-0.6,0.2-1.6,0.3-2.8,0.3c-0.6,0-1.1,0-1.5-0.1
		c-0.4-0.1-0.7-0.1-0.9-0.3c-0.2-0.1-0.3-0.3-0.3-0.5c0-0.2,0-0.4,0.1-0.7l2.8-7.1c-0.2-0.1-0.4-0.2-0.6-0.4
		c-0.2-0.2-0.3-0.4-0.4-0.6l-7.3-19.4c-0.2-0.6-0.3-1-0.3-1.3c0-0.3,0.1-0.5,0.3-0.7c0.2-0.2,0.5-0.3,1-0.3c0.4-0.1,1-0.1,1.8-0.1
		c0.7,0,1.2,0,1.6,0c0.4,0,0.7,0.1,0.9,0.2c0.2,0.1,0.4,0.2,0.5,0.4c0.1,0.2,0.2,0.5,0.3,0.8l5,14.1h0.1l4.6-14.4
		c0.1-0.4,0.2-0.7,0.4-0.8c0.2-0.1,0.4-0.2,0.7-0.3c0.3-0.1,1-0.1,1.8-0.1c0.7,0,1.2,0,1.7,0.1c0.4,0.1,0.8,0.2,1,0.4
		c0.2,0.2,0.3,0.4,0.3,0.7c0,0.3-0.1,0.6-0.2,1L282.7,145.5z"/>
	<path class="st0" d="M297.5,142.1c0,1.5-0.3,2.5-0.8,3c-0.5,0.5-1.4,0.8-2.8,0.8s-2.2-0.2-2.7-0.7c-0.5-0.5-0.8-1.4-0.8-2.8
		c0-1.5,0.3-2.5,0.8-3c0.5-0.5,1.4-0.8,2.8-0.8c1.3,0,2.2,0.2,2.7,0.7C297.3,139.7,297.5,140.7,297.5,142.1z"/>
	<path class="st0" d="M318.4,138.7c0,1.2-0.2,2.3-0.7,3.2c-0.5,0.9-1.1,1.7-1.9,2.3c-0.8,0.6-1.8,1.1-2.9,1.4
		c-1.1,0.3-2.3,0.5-3.6,0.5c-0.8,0-1.5-0.1-2.3-0.2c-0.7-0.1-1.4-0.3-1.9-0.5c-0.6-0.2-1-0.4-1.4-0.6c-0.4-0.2-0.7-0.4-0.8-0.5
		c-0.2-0.2-0.3-0.4-0.4-0.8c-0.1-0.4-0.1-0.9-0.1-1.6c0-0.5,0-0.8,0-1.1c0-0.3,0.1-0.5,0.1-0.7c0.1-0.2,0.1-0.3,0.2-0.3
		c0.1-0.1,0.2-0.1,0.4-0.1c0.2,0,0.4,0.1,0.8,0.3c0.3,0.2,0.8,0.4,1.3,0.7c0.5,0.2,1.1,0.5,1.8,0.7c0.7,0.2,1.4,0.3,2.3,0.3
		c0.5,0,1-0.1,1.4-0.2c0.4-0.1,0.8-0.3,1.1-0.5c0.3-0.2,0.5-0.5,0.7-0.8c0.2-0.3,0.2-0.7,0.2-1.1c0-0.5-0.1-0.9-0.4-1.2
		c-0.3-0.3-0.7-0.6-1.2-0.9c-0.5-0.3-1-0.5-1.6-0.7c-0.6-0.2-1.2-0.5-1.9-0.7c-0.6-0.3-1.3-0.6-1.9-0.9c-0.6-0.3-1.2-0.8-1.6-1.3
		c-0.5-0.5-0.9-1.1-1.2-1.8c-0.3-0.7-0.4-1.6-0.4-2.6c0-1,0.2-1.9,0.6-2.8c0.4-0.8,1-1.6,1.7-2.2c0.7-0.6,1.6-1.1,2.7-1.4
		c1.1-0.3,2.3-0.5,3.6-0.5c0.7,0,1.3,0,1.9,0.1c0.6,0.1,1.2,0.2,1.7,0.4c0.5,0.1,0.9,0.3,1.3,0.5c0.3,0.2,0.6,0.3,0.7,0.4
		c0.2,0.1,0.3,0.2,0.3,0.4c0.1,0.1,0.1,0.3,0.1,0.4c0,0.2,0.1,0.4,0.1,0.6c0,0.2,0,0.5,0,0.9c0,0.4,0,0.8,0,1c0,0.3-0.1,0.5-0.1,0.6
		c-0.1,0.2-0.1,0.3-0.2,0.3c-0.1,0.1-0.2,0.1-0.3,0.1c-0.1,0-0.4-0.1-0.7-0.2c-0.3-0.2-0.7-0.3-1.1-0.5c-0.5-0.2-1-0.4-1.6-0.5
		c-0.6-0.2-1.3-0.2-2-0.2c-0.5,0-1,0.1-1.4,0.2c-0.4,0.1-0.7,0.3-1,0.5c-0.3,0.2-0.4,0.4-0.6,0.7c-0.1,0.3-0.2,0.6-0.2,0.9
		c0,0.5,0.1,0.9,0.4,1.2c0.3,0.3,0.7,0.6,1.2,0.9c0.5,0.3,1,0.5,1.7,0.7c0.6,0.2,1.3,0.5,1.9,0.7c0.6,0.3,1.3,0.6,1.9,0.9
		c0.6,0.3,1.2,0.8,1.7,1.3c0.5,0.5,0.9,1.1,1.2,1.8C318.2,136.9,318.4,137.8,318.4,138.7z"/>
	<path class="st0" d="M342.5,144.7c0,0.2,0,0.3-0.1,0.4c-0.1,0.1-0.2,0.2-0.5,0.3c-0.2,0.1-0.5,0.1-0.9,0.2c-0.4,0-0.9,0.1-1.5,0.1
		c-0.6,0-1.2,0-1.6,0c-0.4,0-0.7-0.1-1-0.2c-0.3-0.1-0.5-0.2-0.6-0.3c-0.1-0.1-0.3-0.3-0.4-0.5l-7-11.1v11.2c0,0.2,0,0.3-0.1,0.4
		c-0.1,0.1-0.3,0.2-0.5,0.3c-0.2,0.1-0.5,0.1-0.9,0.2c-0.4,0-0.9,0.1-1.4,0.1c-0.6,0-1.1,0-1.4-0.1c-0.4,0-0.7-0.1-0.9-0.2
		c-0.2-0.1-0.4-0.2-0.5-0.3c-0.1-0.1-0.1-0.3-0.1-0.4v-31.2c0-0.2,0-0.3,0.1-0.4c0.1-0.1,0.3-0.2,0.5-0.3c0.2-0.1,0.5-0.2,0.9-0.2
		c0.4,0,0.9-0.1,1.4-0.1c0.6,0,1.1,0,1.4,0.1c0.4,0,0.7,0.1,0.9,0.2c0.2,0.1,0.4,0.2,0.5,0.3c0.1,0.1,0.1,0.3,0.1,0.4v18.6l6.3-8.4
		c0.1-0.2,0.3-0.4,0.4-0.5c0.2-0.1,0.4-0.3,0.6-0.3c0.3-0.1,0.6-0.1,1-0.2c0.4,0,0.9-0.1,1.5-0.1c0.6,0,1.1,0,1.5,0.1
		c0.4,0,0.7,0.1,1,0.2c0.2,0.1,0.4,0.2,0.5,0.3c0.1,0.1,0.1,0.3,0.1,0.4c0,0.2-0.1,0.5-0.2,0.8c-0.1,0.3-0.3,0.6-0.5,0.9l-6.2,7
		l7.2,11.1c0.2,0.3,0.3,0.6,0.4,0.8C342.5,144.3,342.5,144.5,342.5,144.7z"/>
</g>
<circle class="st3" cx="84.8" cy="87.1" r="69.3"/>
<path class="st4" d="M88.1,84.3c3.4,5.5,6.8,8.6,13.5,5.8c7.2-3,11.2-8.8,12.2-16.3c1-7.2,7.3-11.6,14.5-8.7
	c7,2.8,7.5,13.7,1.3,17.6c-2.8,1.8-6.3,1.7-9.1,3.5c-3.5,2.1-6,5.8-7.8,9.4c-3.2,6.8-1.6,16.4-8.5,21.2c-6.3,4.4-15.3,1.3-18.3-5.2
	c-4.4-9.4-2.7-33-17.7-33.2c-4.6,0-12.7,10.5-13.8,14.8c-1.8,6.9-0.5,15.6-11.2,14.1c-8.1-1.1-10.2-12.8-3.4-17
	c3.2-2,7.1-2.1,10.3-4.3c3.9-2.6,7.1-6.5,8.8-10.9c2.8-7-0.2-17.2,9.9-19.3c8.2-1.7,13.8,6,13.1,13.5C81.5,73.6,85.7,80.4,88.1,84.3
	z"/>
</svg>
